<?xml version="1.0" encoding="UTF-8" standalone="no"?>
<!-- Created with Inkscape (http://www.inkscape.org/) -->

<svg
   width="200mm"
   height="200mm"
   viewBox="0 0 200 200"
   version="1.1"
   id="svg1"
   xml:space="preserve"
   inkscape:version="1.3 (0e150ed, 2023-07-21)"
   sodipodi:docname="logo3.svg"
   xmlns:inkscape="http://www.inkscape.org/namespaces/inkscape"
   xmlns:sodipodi="http://sodipodi.sourceforge.net/DTD/sodipodi-0.dtd"
   xmlns:xlink="http://www.w3.org/1999/xlink"
   xmlns="http://www.w3.org/2000/svg"
   xmlns:svg="http://www.w3.org/2000/svg"><sodipodi:namedview
     id="namedview1"
     pagecolor="#ffffff"
     bordercolor="#000000"
     borderopacity="0.25"
     inkscape:showpageshadow="2"
     inkscape:pageopacity="0.0"
     inkscape:pagecheckerboard="0"
     inkscape:deskcolor="#d1d1d1"
     inkscape:document-units="mm"
     inkscape:zoom="0.5946522"
     inkscape:cx="255.6116"
     inkscape:cy="447.3203"
     inkscape:window-width="1680"
     inkscape:window-height="997"
     inkscape:window-x="0"
     inkscape:window-y="25"
     inkscape:window-maximized="1"
     inkscape:current-layer="layer1"
     showguides="true"><sodipodi:guide
       position="99.999998,130.59126"
       orientation="-1,0"
       id="guide1"
       inkscape:locked="false"
       inkscape:label=""
       inkscape:color="rgb(0,134,229)" /><sodipodi:guide
       position="-125.84746,99.999999"
       orientation="0,1"
       id="guide6"
       inkscape:locked="false"
       inkscape:label=""
       inkscape:color="rgb(0,134,229)" /></sodipodi:namedview><defs
     id="defs1"><rect
   x="673.03617"
   y="934.64034"
   width="404.29735"
   height="135.55852"
   id="rect6" /><linearGradient
   id="linearGradient5"
   inkscape:collect="always"><stop
     style="stop-color:#ffffff;stop-opacity:0.01000001;"
     offset="0"
     id="stop5" /><stop
     style="stop-color:#ffffff;stop-opacity:0;"
     offset="1"
     id="stop6" /></linearGradient>&#10;	&#10;	&#10;<linearGradient
   inkscape:collect="always"
   xlink:href="#linearGradient5"
   id="linearGradient6"
   x1="-1.8917345"
   y1="-21.58979"
   x2="209.77494"
   y2="-21.58979"
   gradientUnits="userSpaceOnUse" /></defs><g
     inkscape:label="Layer 1"
     inkscape:groupmode="layer"
     id="layer1"
     transform="translate(-0.78196639,-30.003953)"><path
       d="m 108.57929,224.22096 c -2.87227,1.6589 -4.30938,2.48785 -5.83619,2.81214 -1.35136,0.28782 -2.747077,0.28782 -4.098431,0 -1.526799,-0.32429 -2.963908,-1.15324 -5.836163,-2.81214 l -69.59142,-40.1782 c -2.87266,-1.65889 -4.308991,-2.48785 -5.353607,-3.64798 -0.924271,-1.02708 -1.622526,-2.23652 -2.049333,-3.54945 -0.482488,-1.4854 -0.482488,-3.14332 -0.482488,-6.46111 V 90.027331 c 0,-3.317101 0,-4.975702 0.482488,-6.460427 0.426807,-1.313713 1.125062,-2.52304 2.049333,-3.549625 1.044616,-1.160142 2.480947,-1.989393 5.353607,-3.647993 l 69.59142,-40.178597 c 2.872255,-1.6585 4.309364,-2.48775 5.836163,-2.812335 1.351354,-0.287225 2.747071,-0.287225 4.098431,0 1.52681,0.324585 2.96392,1.153835 5.83619,2.812335 l 69.59182,40.178597 c 2.87227,1.6586 4.3084,2.487851 5.3532,3.647993 0.92458,1.026585 1.62244,2.235912 2.04925,3.549625 0.48297,1.484725 0.48297,3.143326 0.48297,6.460329 v 80.356987 c 0,3.31779 0,4.97571 -0.48297,6.46111 -0.42681,1.31293 -1.12467,2.52237 -2.04925,3.54945 -1.0448,1.16013 -2.48093,1.98909 -5.3532,3.64798 z"
       stroke="#000000"
       stroke-width="2"
       stroke-linejoin="round"
       id="path1-8"
       style="fill:#8ebd9d;fill-opacity:1;stroke:#1b475d;stroke-width:5.914;stroke-dasharray:none;stroke-opacity:1" /><path
       style="display:inline;fill:#68ae1a;fill-opacity:1;stroke:#1164c7;stroke-width:0.800839"
       d=""
       id="path5"
       transform="scale(0.26458333)" /><g
       id="g10" /><g
       id="g2"
       transform="matrix(0.51383155,0,0,0.62245039,-5.2060461,104.56393)"
       style="stroke-width:0;stroke-dasharray:none" /><rect
       width="211.66667"
       height="211.66667"
       fill="#ffffff"
       fill-opacity="0.01"
       id="rect1"
       x="-1.8917345"
       y="-127.42313"
       style="stroke-width:4.40972;fill:url(#linearGradient6)" /><g
       id="g4"
       transform="rotate(31.459649,-14.488746,35.353397)" /><g
       id="g1"
       transform="matrix(0.71176002,0,0,0.71176002,-199.61251,165.89026)"><g
         id="g3"
         transform="matrix(0.77927154,-0.00169001,0.00169001,0.77927154,341.10367,-9.8849471)"><path
           d="m 33.386049,48.965762 c 0,-17.638889 0,-132.291669 0,-132.291669 0,-14.612541 12.63562,-26.458333 28.22222,-26.458333 H 174.49716 V 31.326873 c 0,0 -88.276021,0 -112.888891,0 -22.21508,0 -28.22222,3.017132 -28.22222,17.638889 z"
           fill="#2f88ff"
           stroke="#000000"
           stroke-width="17.6389"
           stroke-linejoin="round"
           id="path1"
           style="fill:#fad564;fill-opacity:1;stroke-width:5.914;stroke-dasharray:none" /><path
           fill-rule="evenodd"
           clip-rule="evenodd"
           d="M 51.024939,66.604651 H 174.49716 V 31.326873 H 51.024939 c -9.7417,0 -17.63889,7.897371 -17.63889,17.638889 0,9.741518 7.89719,17.638889 17.63889,17.638889 z"
           stroke="#000000"
           stroke-width="17.6389"
           stroke-linecap="round"
           stroke-linejoin="round"
           id="path2"
           style="fill:#fff5d0;fill-opacity:1;stroke-width:5.914;stroke-dasharray:none" /></g></g><text
       xml:space="preserve"
       transform="matrix(0.26458333,0,0,0.26458333,-96.551424,-95.703871)"
       id="text6"
       style="font-style:normal;font-variant:normal;font-weight:bold;font-stretch:normal;font-size:64px;font-family:Roboto;-inkscape-font-specification:'Roboto Bold';white-space:pre;shape-inside:url(#rect6);display:inline;fill:#1b475d;fill-opacity:1;stroke:#1b475d;stroke-width:3.77953;stroke-dasharray:none;stroke-opacity:1"><tspan
         x="673.03711"
         y="990.64062"
         id="tspan2">TREE</tspan></text></g><g
     id="g5"
     transform="matrix(0.9670062,0.5916458,-0.5916458,0.9670062,135.27364,30.678561)"><path
       d="m 20.34374,11.738663 c -3.09909,0 -5.62053,2.519333 -5.62053,5.618429 0,1.95222 1.00351,3.672535 2.51933,4.680268 l -6.305631,17.480057 c -0.295154,-0.04849 -0.590306,-0.09065 -0.895998,-0.09065 -1.347158,0 -2.567822,0.495434 -3.535501,1.288128 l -14.9516393,1.742769 c 0.419537,-0.786369 0.678848,-1.669717 0.678848,-2.622636 0,-3.099097 -2.5214417,-5.620538 -5.6205357,-5.620538 -3.099097,0 -5.620538,2.521441 -5.620538,5.620538 0,1.673934 0.750529,3.164451 1.916378,4.193267 l -11.329621,19.733021 c -0.57133,-0.196065 -1.172175,-0.326775 -1.810968,-0.326775 -3.099096,0 -5.620538,2.519333 -5.620538,5.61843 0,3.101205 2.521442,5.622645 5.620538,5.622645 3.099096,0 5.61843,-2.52144 5.61843,-5.622645 0,-1.652852 -0.729447,-3.124395 -1.869999,-4.153211 l 11.34227,-19.754104 c 0.554466,0.183416 1.136335,0.307802 1.751939,0.307802 1.334508,0 2.542524,-0.487001 3.5080927,-1.264938 L 5.082357,42.454179 c -0.408996,0.780045 -0.661984,1.650744 -0.661984,2.588905 0,3.099097 2.521441,5.620538 5.620538,5.620538 3.099098,0 5.620542,-2.521441 5.620542,-5.620538 0,-1.994384 -1.05201,-3.737889 -2.620533,-4.73719 l 6.28876,-17.435783 c 0.331,0.06114 0.66831,0.101195 1.01617,0.101195 3.0991,0 5.62054,-2.521442 5.62054,-5.622647 0,-3.101204 -2.52144,-5.618429 -5.62054,-5.618429 z m -50.576406,60.691693 c -1.859458,0 -3.373166,-1.51371 -3.373166,-3.375277 0,-1.85735 1.513708,-3.36895 3.373166,-3.36895 1.859458,0 3.371058,1.5116 3.371058,3.36895 0,1.861567 -1.5116,3.375277 -3.371058,3.375277 z m 16.844749,-29.222162 c -1.85946,0 -3.371058,-1.5116 -3.371058,-3.371058 0,-1.859458 1.511598,-3.371058 3.371058,-3.371058 1.859457,0 3.371056,1.5116 3.371056,3.371058 0,1.859458 -1.511599,3.371058 -3.371056,3.371058 z m 23.428828,5.210165 c -1.859457,0 -3.371058,-1.5116 -3.371058,-3.371058 0,-1.859458 1.511601,-3.371058 3.371058,-3.371058 1.859457,0 3.371059,1.5116 3.371059,3.371058 0,1.859458 -1.511602,3.371058 -3.371059,3.371058 z m 10.302829,-27.6881 c -1.85945,0 -3.37105,-1.513709 -3.37105,-3.373167 0,-1.857349 1.5116,-3.368949 3.37105,-3.368949 1.85946,0 3.37106,1.5116 3.37106,3.368949 0,1.861566 -1.5116,3.373167 -3.37106,3.373167 z"
       fill="#000000"
       id="path1-3"
       style="fill:#1b475d;fill-opacity:1;stroke-width:2.10823"
       sodipodi:nodetypes="csccsccsssccssssccsccsssccssccssssssssssssssssssss" /><path
       d="m -12.850568,8.0848788 c -3.09909,0 -5.62053,2.5193332 -5.62053,5.6184292 0,1.95222 1.00351,3.672535 2.51933,4.680268 l 3.478155,15.960443 c -0.295154,-0.04849 -0.590306,-0.09065 -0.895998,-0.09065 -1.347158,0 -2.567822,0.495434 -3.535501,1.288128 l -10.631795,-8.782886 c 0.419537,-0.786369 0.678848,-1.669717 0.678848,-2.622636 0,-3.099097 -2.521442,-5.620538 -5.620536,-5.620538 -3.099097,0 -5.620538,2.521441 -5.620538,5.620538 0,1.673934 0.750529,3.164451 1.916378,4.193267 l -11.329621,19.733021 c -0.57133,-0.196065 -1.172175,-0.326775 -1.810968,-0.326775 -3.099096,0 -5.620538,2.519333 -5.620538,5.61843 0,3.101205 2.521442,5.622645 5.620538,5.622645 3.099096,0 5.61843,-2.52144 5.61843,-5.622645 0,-1.652852 -0.729447,-3.124395 -1.869999,-4.153211 l 11.34227,-19.754104 c 0.554466,0.183416 1.136335,0.307802 1.751939,0.307802 1.334508,0 2.542524,-0.487001 3.508093,-1.264938 l 10.644446,8.791314 c -0.408996,0.780045 -0.661984,1.650744 -0.661984,2.588905 0,3.099097 2.521441,5.620538 5.620538,5.620538 3.099098,0 5.6205433,-2.521441 5.6205433,-5.620538 0,-1.994384 -1.05201,-3.737889 -2.6205343,-4.73719 l -3.495026,-15.916169 c 0.331,0.06114 0.66831,0.101195 1.01617,0.101195 3.0990999,0 5.62054,-2.521442 5.62054,-5.622647 0,-3.101204 -2.5214401,-5.6184292 -5.62054,-5.6184292 z M -49.323344,56.731303 c -1.859458,0 -3.373166,-1.51371 -3.373166,-3.375277 0,-1.85735 1.513708,-3.36895 3.373166,-3.36895 1.859458,0 3.371058,1.5116 3.371058,3.36895 0,1.861567 -1.5116,3.375277 -3.371058,3.375277 z m 16.844749,-29.222162 c -1.85946,0 -3.371058,-1.5116 -3.371058,-3.371058 0,-1.859458 1.511598,-3.371058 3.371058,-3.371058 1.859457,0 3.371056,1.5116 3.371056,3.371058 0,1.859458 -1.511599,3.371058 -3.371056,3.371058 z m 19.108984,15.73582 c -1.859457,0 -3.371058,-1.5116 -3.371058,-3.371058 0,-1.859458 1.511601,-3.371058 3.371058,-3.371058 1.859457,0 3.3710603,1.5116 3.3710603,3.371058 0,1.859458 -1.5116033,3.371058 -3.3710603,3.371058 z m 0.519043,-26.168486 c -1.85945,0 -3.37105,-1.513709 -3.37105,-3.373167 0,-1.857349 1.5116,-3.368949 3.37105,-3.368949 1.85946,0 3.3710599,1.5116 3.3710599,3.368949 0,1.861566 -1.5115999,3.373167 -3.3710599,3.373167 z"
       fill="#000000"
       id="path1-3-3"
       style="fill:#1b475d;fill-opacity:1;stroke-width:2.10823"
       sodipodi:nodetypes="csccsccsssccssssccsccsssccssccssssssssssssssssssss" /><path
       d="M 12.836104,77.916291 C 14.690394,75.433154 14.18045,71.905456 11.69731,70.051162 10.1331,68.883082 8.1542685,68.657818 6.4398592,69.269403 L -9.6420446,43.999006 c 0.2154538,-0.207478 0.4258335,-0.418743 0.608739,-0.663677 0.8060512,-1.079406 1.139451,-2.353894 1.0833021,-3.603539 L 0.57694936,29.037539 c 0.3790523,0.806664 0.93167754,1.542973 1.69520074,2.113138 2.4831415,1.854294 6.0121025,1.342661 7.8663959,-1.140478 1.854296,-2.483142 1.342663,-6.012102 -1.1404784,-7.866397 -1.341235,-1.001571 -2.984574,-1.29204 -4.5064764,-0.973483 L 0.3311407,7.7162166 C 0.83008334,7.3757526 1.2943203,6.9725358 1.6765319,6.4607049 3.5308264,3.9775647 3.0208835,0.44986409 0.53774147,-1.4044308 -1.9470888,-3.2599868 -5.4760488,-2.7483535 -7.3303439,-0.26521263 -9.1846386,2.2179282 -8.6717452,5.7451997 -6.1869146,7.6007561 c 1.3243417,0.9889576 2.9398638,1.2849647 4.4466303,0.9866767 L 2.429491,22.064285 C 1.9507737,22.398805 1.5029577,22.790602 1.1346209,23.283853 0.33613936,24.353122 0.00355036,25.61243 0.04913706,26.851556 L -8.492138,37.5509 c -0.3802918,-0.794434 -0.9265659,-1.51811 -1.678265,-2.079443 -2.48314,-1.854294 -6.012101,-1.342662 -7.866396,1.14048 -1.854296,2.483142 -1.342666,6.012105 1.140476,7.866401 1.597993,1.193307 3.624425,1.393587 5.363613,0.734727 L 4.5238133,70.443454 c -0.2470367,0.22863 -0.4809548,0.474932 -0.6890913,0.753654 -1.8542968,2.483144 -1.342663,6.012105 1.1421676,7.867661 2.4848297,1.855556 6.0104114,1.341401 7.8647084,-1.141742 z M -5.531336,1.0782033 C -4.4187594,-0.41168213 -2.300201,-0.71883093 -0.80862636,0.39500784 0.67956961,1.5063232 0.98503119,3.6236185 -0.12754528,5.1135033 -1.2401228,6.603388 -3.3557287,6.9101109 -4.8439247,5.7987952 -6.3354994,4.6849564 -6.6439124,2.5680877 -5.531336,1.0782033 Z M 2.9323696,24.62896 c 1.1125781,-1.489886 3.228183,-1.796608 4.718068,-0.68403 1.489885,1.112576 1.796609,3.228181 0.68403,4.718067 -1.112576,1.489884 -3.228181,1.796607 -4.7180661,0.684029 C 2.1265167,28.23445 1.8197932,26.118844 2.9323696,24.62896 Z M -16.23779,37.955354 c 1.112577,-1.489885 3.228184,-1.796608 4.718068,-0.684031 1.489886,1.112577 1.7966075,3.228184 0.684031,4.718068 -1.112577,1.489883 -3.228185,1.796609 -4.718069,0.684032 -1.489885,-1.112577 -1.796606,-3.228186 -0.68403,-4.718069 z M 5.6316162,72.536313 c 1.1125722,-1.489879 3.2298684,-1.79534 4.7197528,-0.682763 1.488195,1.111315 1.794919,3.226922 0.682346,4.7168 C 9.921137,78.060236 7.8055303,78.366959 6.3173356,77.255644 4.8257618,76.141806 4.519038,74.026199 5.6316162,72.536313 Z"
       fill="#000000"
       id="path1-3-3-4"
       style="fill:#1b475d;fill-opacity:1;stroke-width:2.10823"
       sodipodi:nodetypes="csccsccsssccssssccsccsssccssccssssssssssssssssssss" /></g><g
     id="g6"><path
       style="fill:#fff5d0;fill-opacity:1;stroke:#fff5d0;stroke-width:1.67072;stroke-dasharray:none;stroke-opacity:1"
       id="path6-7-6"
       sodipodi:type="arc"
       sodipodi:cx="65.187721"
       sodipodi:cy="79.55072"
       sodipodi:rx="2.9570487"
       sodipodi:ry="2.9782994"
       sodipodi:start="2.6817844"
       sodipodi:end="2.6696957"
       sodipodi:open="true"
       sodipodi:arc-type="arc"
       d="m 62.537799,80.872419 a 2.9570487,2.9782994 0 0 1 1.329652,-3.986658 2.9570487,2.9782994 0 0 1 3.962213,1.327153 2.9570487,2.9782994 0 0 1 -1.305703,3.99468 2.9570487,2.9782994 0 0 1 -3.970105,-1.303008" /><path
       style="fill:#fff5d0;fill-opacity:1;stroke:#fff5d0;stroke-width:1.67072;stroke-dasharray:none;stroke-opacity:1"
       id="path6-7-7"
       sodipodi:type="arc"
       sodipodi:cx="114.75213"
       sodipodi:cy="36.400963"
       sodipodi:rx="2.9570487"
       sodipodi:ry="2.9782994"
       sodipodi:start="2.6817844"
       sodipodi:end="2.6696957"
       sodipodi:open="true"
       sodipodi:arc-type="arc"
       d="m 112.10221,37.722661 a 2.9570487,2.9782994 0 0 1 1.32965,-3.986658 2.9570487,2.9782994 0 0 1 3.96221,1.327153 2.9570487,2.9782994 0 0 1 -1.3057,3.99468 2.9570487,2.9782994 0 0 1 -3.97011,-1.303008" /><path
       style="fill:#fff5d0;fill-opacity:1;stroke:#fff5d0;stroke-width:1.67072;stroke-dasharray:none;stroke-opacity:1"
       id="path6-7-1"
       sodipodi:type="arc"
       sodipodi:cx="130.76674"
       sodipodi:cy="31.911396"
       sodipodi:rx="2.9570487"
       sodipodi:ry="2.9782994"
       sodipodi:start="2.6817844"
       sodipodi:end="2.6696957"
       sodipodi:open="true"
       sodipodi:arc-type="arc"
       d="m 128.11682,33.233095 a 2.9570487,2.9782994 0 0 1 1.32965,-3.986658 2.9570487,2.9782994 0 0 1 3.96221,1.327152 2.9570487,2.9782994 0 0 1 -1.3057,3.99468 2.9570487,2.9782994 0 0 1 -3.97011,-1.303007" /><path
       style="fill:#fff5d0;fill-opacity:1;stroke:#fff5d0;stroke-width:1.67072;stroke-dasharray:none;stroke-opacity:1"
       id="path6-7-3"
       sodipodi:type="arc"
       sodipodi:cx="89.612755"
       sodipodi:cy="34.738621"
       sodipodi:rx="2.9570487"
       sodipodi:ry="2.9782994"
       sodipodi:start="2.6817844"
       sodipodi:end="2.6696957"
       sodipodi:open="true"
       sodipodi:arc-type="arc"
       d="m 86.962832,36.060319 a 2.9570487,2.9782994 0 0 1 1.329652,-3.986658 2.9570487,2.9782994 0 0 1 3.962213,1.327153 2.9570487,2.9782994 0 0 1 -1.305703,3.99468 2.9570487,2.9782994 0 0 1 -3.970105,-1.303008" /><path
       style="fill:#fff5d0;fill-opacity:1;stroke:#fff5d0;stroke-width:1.67072;stroke-dasharray:none;stroke-opacity:1"
       id="path6-7-4"
       sodipodi:type="arc"
       sodipodi:cx="98.692719"
       sodipodi:cy="61.416164"
       sodipodi:rx="2.9570487"
       sodipodi:ry="2.9782994"
       sodipodi:start="2.6817844"
       sodipodi:end="2.6696957"
       sodipodi:open="true"
       sodipodi:arc-type="arc"
       d="m 96.042796,62.737863 a 2.9570487,2.9782994 0 0 1 1.329652,-3.986658 2.9570487,2.9782994 0 0 1 3.962212,1.327153 2.9570487,2.9782994 0 0 1 -1.3057,3.99468 2.9570487,2.9782994 0 0 1 -3.970107,-1.303008" /><path
       style="fill:#fff5d0;fill-opacity:1;stroke:#fff5d0;stroke-width:1.67072;stroke-dasharray:none;stroke-opacity:1"
       id="path6-7-4-4"
       sodipodi:type="arc"
       sodipodi:cx="99.208824"
       sodipodi:cy="107.74306"
       sodipodi:rx="2.9570487"
       sodipodi:ry="2.9782994"
       sodipodi:start="2.6817844"
       sodipodi:end="2.6696957"
       sodipodi:open="true"
       sodipodi:arc-type="arc"
       d="m 96.558902,109.06476 a 2.9570487,2.9782994 0 0 1 1.329652,-3.98666 2.9570487,2.9782994 0 0 1 3.962216,1.32715 2.9570487,2.9782994 0 0 1 -1.30571,3.99468 2.9570487,2.9782994 0 0 1 -3.970101,-1.30301" /><path
       style="fill:#fff5d0;fill-opacity:1;stroke:#fff5d0;stroke-width:1.67072;stroke-dasharray:none;stroke-opacity:1"
       id="path6-7-4-3"
       sodipodi:type="arc"
       sodipodi:cx="118.34641"
       sodipodi:cy="80.191681"
       sodipodi:rx="2.9570487"
       sodipodi:ry="2.9782994"
       sodipodi:start="2.6817844"
       sodipodi:end="2.6696957"
       sodipodi:open="true"
       sodipodi:arc-type="arc"
       d="m 115.69649,81.51338 a 2.9570487,2.9782994 0 0 1 1.32965,-3.986659 2.9570487,2.9782994 0 0 1 3.96221,1.327153 2.9570487,2.9782994 0 0 1 -1.3057,3.99468 2.9570487,2.9782994 0 0 1 -3.9701,-1.303007" /><path
       style="fill:#fff5d0;fill-opacity:1;stroke:#fff5d0;stroke-width:1.67072;stroke-dasharray:none;stroke-opacity:1"
       id="path6-7-4-9"
       sodipodi:type="arc"
       sodipodi:cx="124.98851"
       sodipodi:cy="59.809429"
       sodipodi:rx="2.9570487"
       sodipodi:ry="2.9782994"
       sodipodi:start="2.6817844"
       sodipodi:end="2.6696957"
       sodipodi:open="true"
       sodipodi:arc-type="arc"
       d="m 122.33859,61.131128 a 2.9570487,2.9782994 0 0 1 1.32965,-3.986658 2.9570487,2.9782994 0 0 1 3.96221,1.327153 2.9570487,2.9782994 0 0 1 -1.3057,3.99468 2.9570487,2.9782994 0 0 1 -3.97011,-1.303008" /><path
       style="fill:#fff5d0;fill-opacity:1;stroke:#fff5d0;stroke-width:1.67072;stroke-dasharray:none;stroke-opacity:1"
       id="path6-7-4-2"
       sodipodi:type="arc"
       sodipodi:cx="144.79884"
       sodipodi:cy="59.490543"
       sodipodi:rx="2.9570487"
       sodipodi:ry="2.9782994"
       sodipodi:start="2.6817844"
       sodipodi:end="2.6696957"
       sodipodi:open="true"
       sodipodi:arc-type="arc"
       d="m 142.14892,60.812242 a 2.9570487,2.9782994 0 0 1 1.32965,-3.986658 2.9570487,2.9782994 0 0 1 3.96222,1.327153 2.9570487,2.9782994 0 0 1 -1.30571,3.99468 2.9570487,2.9782994 0 0 1 -3.9701,-1.303008" /><path
       style="fill:#fff5d0;fill-opacity:1;stroke:#fff5d0;stroke-width:1.67072;stroke-dasharray:none;stroke-opacity:1"
       id="path6-7-5"
       sodipodi:type="arc"
       sodipodi:cx="56.07439"
       sodipodi:cy="53.120941"
       sodipodi:rx="2.9570487"
       sodipodi:ry="2.9782994"
       sodipodi:start="2.6817844"
       sodipodi:end="2.6696957"
       sodipodi:open="true"
       sodipodi:arc-type="arc"
       d="m 53.424468,54.44264 a 2.9570487,2.9782994 0 0 1 1.329652,-3.986658 2.9570487,2.9782994 0 0 1 3.962213,1.327153 2.9570487,2.9782994 0 0 1 -1.305703,3.994679 2.9570487,2.9782994 0 0 1 -3.970105,-1.303007" /></g></svg>
